<?xml version="1.0" encoding="utf-8"?>
<!-- Generated by IcoMoon.io -->
<!DOCTYPE svg PUBLIC "-//W3C//DTD SVG 1.1//EN" "http://www.w3.org/Graphics/SVG/1.1/DTD/svg11.dtd">
<svg version="1.1" xmlns="http://www.w3.org/2000/svg" xmlns:xlink="http://www.w3.org/1999/xlink" width="32" height="32" viewBox="0 0 32 32">
<g id="icomoon-ignore">
	<line stroke-width="1" x1="" y1="" x2="" y2="" stroke="#449FDB" opacity=""></line>
</g>
	<path d="M0 22.857v-13.714q0-0.714 0.411-1.304t1.089-0.839l12.571-4.571q0.393-0.143 0.786-0.143t0.786 0.143l12.571 4.571q0.679 0.25 1.089 0.839t0.411 1.304v13.714q0 0.625-0.321 1.161t-0.875 0.839l-12.571 6.857q-0.5 0.286-1.089 0.286t-1.089-0.286l-12.571-6.857q-0.554-0.304-0.875-0.839t-0.321-1.161zM2.393 9.107l12.464 4.536 12.464-4.536-12.464-4.536zM16 29.089l11.429-6.232v-11.357l-11.429 4.161v13.429z" fill="#000000"></path>
</svg>
