<?xml version="1.0" encoding="utf-8"?>
<!-- Generated by IcoMoon.io -->
<!DOCTYPE svg PUBLIC "-//W3C//DTD SVG 1.1//EN" "http://www.w3.org/Graphics/SVG/1.1/DTD/svg11.dtd">
<svg version="1.1" xmlns="http://www.w3.org/2000/svg" xmlns:xlink="http://www.w3.org/1999/xlink" width="32" height="32" viewBox="0 0 32 32">
<g id="icomoon-ignore">
	<line stroke-width="1" x1="" y1="" x2="" y2="" stroke="#449FDB" opacity=""></line>
</g>
	<path d="M0 19.696q0-1.982 0.321-3.884t0.973-3.741 1.795-3.464 2.679-2.786q1.393-1.054 4.143-2.143 3.464-1.393 5.643-1.393 1.071 0 3.134 0.429t3.098 0.429q0.339 0 1.018-0.089t1.036-0.089q1.446 0 2.107 0.902t0.661 2.402q0 0.411-0.089 1.214t-0.089 1.214q0 0.179 0.018 0.33t0.054 0.304 0.071 0.241 0.116 0.286 0.116 0.304q0.286 0.714 0.446 2.116t0.161 2.438q0 2.946-1.25 5.848t-3.5 5.143-5.018 3.223q-2.214 0.786-5.821 0.786-1.018 0-3.036-0.259t-3.018-0.259q-0.429 0-1.295 0.259t-1.313 0.259q-1.304 0-2.205-0.991t-0.902-2.295q0-0.429 0.196-1.214t0.196-1.196q0-0.714-0.223-2.152t-0.223-2.17zM2.286 19.679q0 0.714 0.223 2.143t0.223 2.161q0 0.411-0.196 1.188t-0.196 1.17 0.214 0.652 0.607 0.259q0.429 0 1.295-0.196t1.313-0.196q1.018 0 3.027 0.277t3.027 0.277q3.232 0 5.071-0.643 2.304-0.804 4.205-2.723t2.964-4.384 1.063-4.911q0-0.786-0.125-2.027t-0.321-1.723q-0.214-0.536-0.304-0.786t-0.161-0.652-0.071-0.866q0-0.411 0.089-1.223t0.089-1.205q0-0.661-0.179-0.982-0.071-0.018-0.232-0.018-0.339 0-1.036 0.080t-1.054 0.080q-1.071 0-3.143-0.429t-3.125-0.429q-0.768 0-1.688 0.205t-1.518 0.42-1.598 0.607q-2.446 0.964-3.607 1.839-1.714 1.304-2.848 3.384t-1.571 4.214-0.438 4.438z" fill="#000000"></path>
</svg>
