<?xml version="1.0" encoding="utf-8"?>
<!-- Generated by IcoMoon.io -->
<!DOCTYPE svg PUBLIC "-//W3C//DTD SVG 1.1//EN" "http://www.w3.org/Graphics/SVG/1.1/DTD/svg11.dtd">
<svg version="1.1" xmlns="http://www.w3.org/2000/svg" xmlns:xlink="http://www.w3.org/1999/xlink" width="30" height="32" viewBox="0 0 30 32">
<g id="icomoon-ignore">
	<line stroke-width="1" x1="" y1="" x2="" y2="" stroke="#449FDB" opacity=""></line>
</g>
	<path d="M0 15.268q0-0.089 0.018-0.125 0.804-3.268 3.080-5.705t5.321-3.652 6.438-1.214q2.5 0 4.902 0.714t4.402 2.027 3.473 3.339 2.063 4.491q0.018 0.036 0.018 0.125 0 0.232-0.17 0.402t-0.402 0.17q-0.196 0-0.411-0.179-0.875-0.821-1.661-1.232t-1.821-0.411q-1.214 0-2.286 0.661t-1.839 1.732q-0.125 0.179-0.313 0.5t-0.259 0.429q-0.196 0.304-0.5 0.304-0.321 0-0.518-0.304-0.071-0.107-0.259-0.429t-0.313-0.5q-0.768-1.071-1.83-1.732t-2.277-0.661-2.277 0.661-1.83 1.732q-0.125 0.179-0.313 0.5t-0.259 0.429q-0.196 0.304-0.518 0.304-0.304 0-0.5-0.304-0.071-0.107-0.259-0.429t-0.313-0.5q-0.768-1.071-1.839-1.732t-2.286-0.661q-1.036 0-1.821 0.411t-1.661 1.232q-0.214 0.179-0.411 0.179-0.232 0-0.402-0.17t-0.17-0.402zM6.857 25.143q0-0.464 0.339-0.804t0.804-0.339 0.804 0.339 0.339 0.804q0 0.893 0.696 1.589t1.589 0.696 1.589-0.696 0.696-1.589v-10.357q0.589-0.196 1.143-0.196t1.143 0.196v10.357q0 1.857-1.357 3.214t-3.214 1.357-3.214-1.357-1.357-3.214zM13.714 4.036v-1.75q0-0.464 0.339-0.804t0.804-0.339 0.804 0.339 0.339 0.804v1.75q-0.75-0.036-1.143-0.036t-1.143 0.036z" fill="#000000"></path>
</svg>
